<?xml version="1.0" encoding="UTF-8"?>
<svg width="1200pt" height="1200pt" version="1.1" viewBox="0 0 1200 1200" xmlns="http://www.w3.org/2000/svg">
 <g>
  <path d="m79.551 449.7c2.8203 1.6836 6.3164 1.7852 9.2383 0.23047 21.605-11.527 35.832-13.945 43.965-13.945 18.199 0 26.625 4.2031 35.539 8.6523 8.5508 4.2578 18.238 9.0898 34.898 9.0898 33.289 0 54.492-14.879 55.379-15.508 2.4648-1.7578 3.9297-4.5977 3.9297-7.6289v-83.469c0-3.4961-1.9609-6.6836-5.0625-8.3047-3.0859-1.6016-6.8477-1.3555-9.7227 0.64844-0.17578 0.11719-17.523 12.039-44.523 12.039-12.25 0-18.547-3.1406-26.531-7.1211-9.9805-4.9805-21.297-10.621-43.91-10.621-14.941 0-32.703 5.4375-52.789 16.16-3.0547 1.6328-4.9609 4.8086-4.9609 8.2695v83.469c0 3.2969 1.7305 6.3438 4.5508 8.0391zm14.199-85.797c18.84-9.3398 31.512-11.391 39-11.391 18.199 0 26.625 4.2031 35.539 8.6523 8.5508 4.2578 18.238 9.0898 34.898 9.0898 17.066 0 30.953-3.9102 40.559-7.8008v62.805c-6.6016 3.4961-21.066 9.7148-40.559 9.7148-12.25 0-18.547-3.1406-26.531-7.1211-9.9805-4.9805-21.297-10.621-43.91-10.621-11.426 0-24.5 3.1758-39 9.4648z"/>
  <path d="m187.5 393.75c0 10.355-8.3945 18.75-18.75 18.75s-18.75-8.3945-18.75-18.75 8.3945-18.75 18.75-18.75 18.75 8.3945 18.75 18.75"/>
  <path d="m417.19 243.75c49.109 0 89.062-39.953 89.062-89.062s-39.953-89.062-89.062-89.062-89.062 39.953-89.062 89.062 39.953 89.062 89.062 89.062zm0-159.38c38.773 0 70.312 31.539 70.312 70.312s-31.539 70.312-70.312 70.312-70.312-31.539-70.312-70.312 31.539-70.312 70.312-70.312z"/>
  <path d="m394.45 183.02c1.9961 0 4-0.63281 5.7109-1.9414l26.898-20.699c2.3008-1.7695 3.4219-4.3984 3.5195-7.0898 0.39453-1.0312 0.66797-2.125 0.66797-3.293v-37.5c0-5.1836-4.1914-9.375-9.375-9.375s-9.375 4.1914-9.375 9.375v35.418l-23.777 18.297c-4.1016 3.1602-4.8633 9.0469-1.7109 13.156 1.8477 2.3984 4.6328 3.6523 7.4414 3.6523z"/>
  <path d="m958.27 466.39 35.859 35.859c1.832 1.832 4.2305 2.7461 6.6289 2.7461 2.3984 0 4.7969-0.91406 6.6289-2.7461l105.79-105.79c1.0078-1.0078 1.7656-2.2266 2.2344-3.5703l18.238-52.844c1.1523-3.3398 0.32812-7.0586-2.1406-9.5938-2.4727-2.5352-6.1602-3.4688-9.5312-2.4062l-54.098 16.984c-1.4375 0.44922-2.7461 1.2461-3.8164 2.3164l-105.79 105.79c-3.668 3.6602-3.668 9.5938-0.003906 13.254zm117.42-104.16 34.176-10.73-11.473 33.234-97.633 97.633-22.605-22.605z"/>
  <path d="m555.72 738.46-39.625-48.258c-4.1523-5.0586-10.547-7.6484-17.074-7.1484-37.875 2.9023-73.18 20.934-97.77 50.281l-74.453 88.863c-8.0859 9.6523-23.199 8.7461-30.078-1.8008l-72.605-111.34-0.13672 0.0625-22.633-39.875c-7.6016-13.391-21.293-22.195-36.633-23.555l-27.559-2.4414c-6.0547-0.53516-11.473-3.9727-14.539-9.2227l-9.8125-16.809c-5.1641-8.8438-14.473-13.801-24.059-13.801-4.5117 0-9.082 1.0977-13.312 3.4062-13.422 7.3281-18.418 24.113-11.184 37.586l59.492 110.84 121.59 225.16c11.941 22.113 35.047 35.895 60.18 35.895 17.91 0 35.109-7.0273 47.895-19.57l33.805-33.16c-9.6133-61.355 3.5234-110.5 4.1406-112.75 1.375-4.9883 6.5195-7.9102 11.516-6.5469 4.9883 1.375 7.9297 6.5273 6.5547 11.516-0.125 0.48438-11.07 41.738-5.1328 94.109 4.2266 13.297 26.004 86.641 17.188 161.63-1.3945 11.867 7.5508 22.395 19.5 22.395l149.64 0.011719v-374.95c-13.133-2.4102-25.602-9.207-34.902-20.531zm-471.3-115.18c1.3555-0.73828 2.8125-1.1133 4.3281-1.1133 3.2773 0 6.2188 1.6836 7.8672 4.5078l9.8125 16.809c6.1172 10.48 16.988 17.375 29.078 18.445l27.559 2.4414c9.2031 0.81641 17.418 6.0977 21.977 14.133l12.82 22.586-65.891 29.855-51.199-95.398c-2.3516-4.3789-0.71484-9.8828 3.6484-12.266z"/>
  <path d="m768.73 678.06c30.121 0 38.215-24.25 40.379-36.32 0.71094-3.9609 2.4023-7.7539 5.3047-10.539 20.012-19.18 9.8906-40.883 2.4648-51.73-3.207-4.6836-4.2344-10.512-2.7344-15.984 8.4453-30.812 5.4805-60.344-20.176-75.434-22.668-13.332-34.113-36.77-37.723-45.414-0.375-0.92578-0.70703-1.8672-1.1016-2.7852-0.125-0.33594-0.20313-0.5625-0.20313-0.5625s-0.007812 0.050781-0.019531 0.10156c-25.895-59.926-85.484-101.89-154.93-101.89-60.078 0-112.62 31.523-142.49 78.824l-0.015625-0.023438c-0.12891 0.22266-0.23047 0.41016-0.35547 0.62891-3.3906 5.418-6.5586 10.984-9.332 16.793-7.8516 14.453-14.246 25.484-28.906 36.641l0.015625 0.023438c-15.934 12.988-33.953 35.414-36.957 71.762-0.38281 4.6445-2.5469 8.8984-6.2852 11.676-13.785 10.25-45.688 39.508-27.609 80.383 1.5352 3.4727 2.1289 7.2344 1.3477 10.953-1.9141 9.1562-2.4297 28.281 22.312 39.168 21.352 9.3945 47.852-5.4961 58.047-12.168 2.7812-1.8203 6.0117-2.7578 9.3359-2.668 13.371 0.35937 48.094 2.5938 61.691-26.941 27.863 20.32 62.074 32.449 99.199 32.449 34.887 0 67.293-10.594 94.199-28.727 14.348 17.672 39.855 31.789 74.535 31.789zm-314.9-138.6c111.11-7.5977 159.45-57.266 180.46-99.102 17.57 22.734 51.035 46 114.36 46.793 0.80078 6.2695 1.3555 12.609 1.3555 19.094 0 82.711-67.289 150-150 150-71.281 0-131-50.027-146.17-116.79z"/>
  <path d="m709.75 248.7c1.6992 2.7539 4.7227 4.4297 7.9648 4.4297h224.22c3.2422 0 6.2617-1.6758 7.9648-4.4297 1.7109-2.7656 1.875-6.207 0.42969-9.1094l-31.578-63.598v-110.36c0-5.1836-4.1914-9.375-9.375-9.375h-159.38c-5.1836 0-9.375 4.1914-9.375 9.375v110.9l-31.312 63.062c-1.4453 2.9023-1.2812 6.3438 0.43359 9.1094zm49.629-173.7h140.62v93.75h-140.62zm-3.2695 112.5h147.43l23.273 46.875h-193.97z"/>
  <path d="m871.88 196.88h-84.375c-5.1836 0-9.375 4.1914-9.375 9.375s4.1914 9.375 9.375 9.375h84.375c5.1836 0 9.375-4.1914 9.375-9.375s-4.1914-9.375-9.375-9.375z"/>
  <path d="m1127 606.83c-4.2305-2.3086-8.8008-3.4102-13.312-3.4062-9.5859 0-18.895 4.9609-24.055 13.801l-9.8125 16.809c-3.0664 5.25-8.4844 8.6875-14.539 9.2227l-27.559 2.4414c-15.336 1.3594-29.031 10.164-36.633 23.555l-22.957 40.445 0.042969 0.019532-72.184 110.69c-6.8789 10.547-21.992 11.453-30.078 1.8008l-74.453-88.863c-24.59-29.348-59.891-47.375-97.762-50.281-6.5273-0.5-12.926 2.0938-17.078 7.1562l-39.566 48.23c-9.9453 12.121-23.52 19.074-37.656 20.992v374.51h152.33c11.949 0 20.895-10.527 19.5-22.395-7.6953-65.484 7.9414-129.7 14.855-153.83 8.0508-56.027-3.9922-101.41-4.1211-101.92-1.375-4.9883 1.5664-10.145 6.5547-11.516 4.9805-1.375 10.145 1.5547 11.516 6.5469 0.61328 2.2344 13.59 50.793 4.3125 111.62l34.965 34.301c12.781 12.535 29.969 19.559 47.867 19.559 25.137 0 48.246-13.797 60.172-35.926l121.34-225.13 59.492-110.84c7.2344-13.477 2.2383-30.258-11.184-37.59zm-395.73 293.17h-56.25c-5.1836 0-9.375-4.1914-9.375-9.375s4.1914-9.375 9.375-9.375h56.25c5.1836 0 9.375 4.1914 9.375 9.375s-4.1914 9.375-9.375 9.375zm308.1-235.62 27.559-2.4414c12.09-1.0703 22.957-7.9648 29.078-18.445l9.8125-16.809c1.6484-2.8203 4.5898-4.5039 7.8672-4.5039 1.5156 0 2.9727 0.375 4.3242 1.1133 4.3633 2.3828 6 7.8828 3.6523 12.266l-51.203 95.395-65.891-29.855 12.82-22.586c4.5625-8.0352 12.777-13.32 21.98-14.133z"/>
  <path d="m1082 476.47c-0.91406-3.2031-1.8125-6.2539-2.6719-9.1172-1.5-4.9531-6.7188-7.7656-11.684-6.2812-4.9609 1.4922-7.7734 6.7305-6.2812 11.684 0.84375 2.793 1.7227 5.7695 2.6172 8.8789 1.1797 4.1211 4.9258 6.793 9 6.793 0.85938 0 1.7305-0.11719 2.5898-0.36719 4.9844-1.4297 7.8594-6.6211 6.4297-11.59z"/>
  <path d="m1091.8 580.17c0.26562 0 0.53906-0.007813 0.81641-0.035157 5.1641-0.44922 8.9805-4.9883 8.5312-10.145-0.27344-3.1758-0.61328-6.3984-1.0156-9.6484-0.62109-5.1445-5.2656-8.9258-10.438-8.168-5.1445 0.62109-8.7969 5.3008-8.168 10.438 0.36719 3.0312 0.6875 6.0352 0.94141 8.9922 0.42188 4.8867 4.5156 8.5664 9.332 8.5664z"/>
  <path d="m1075.3 526.5c0.96094 4.3945 4.8438 7.3867 9.1562 7.3867 0.66016 0 1.3281-0.0625 1.9961-0.21094 5.0625-1.0977 8.2773-6.0977 7.1797-11.152-0.67578-3.1211-1.3633-6.2148-2.0703-9.2734-1.1641-5.043-6.1992-8.1953-11.242-7.0312s-8.1953 6.1992-7.0312 11.242c0.68359 2.9883 1.3516 6.0117 2.0117 9.0391z"/>
  <path d="m952.61 271.47c2.0781 2.2617 4.1367 4.5391 6.1797 6.8398 1.8477 2.0781 4.4219 3.1406 7.0039 3.1406 2.2266 0 4.4492-0.77734 6.2344-2.3711 3.8633-3.4414 4.2109-9.3672 0.76953-13.238-2.1133-2.3711-4.25-4.7227-6.3984-7.0586-3.4961-3.8164-9.4492-4.0664-13.238-0.55078-3.8203 3.4961-4.0547 9.4297-0.55078 13.238z"/>
  <path d="m987.62 314.08c1.8398 2.5195 4.6875 3.8438 7.582 3.8438 1.9141 0 3.8555-0.58594 5.5195-1.8047 4.1836-3.0586 5.0898-8.9258 2.043-13.102-1.875-2.5625-3.7734-5.1172-5.6953-7.6445-3.1211-4.1289-9-4.9531-13.129-1.8125-4.1289 3.1211-4.9453 9-1.8125 13.129 1.8477 2.4531 3.6875 4.918 5.4922 7.3906z"/>
  <path d="m1011.3 349.74c1.75 2.9375 4.8633 4.5586 8.0469 4.5586 1.6406 0 3.2969-0.42969 4.8047-1.3359 4.4414-2.6562 5.8867-8.4141 3.2227-12.855l-3.2695-5.375c-2.7109-4.4219-8.5234-5.7773-12.898-3.0469-4.4023 2.7188-5.7695 8.4961-3.0469 12.898z"/>
  <path d="m662.37 121.55c3.0391 0.38281 6.0703 0.79687 9.1016 1.2461 0.46875 0.0625 0.92578 0.10156 1.3828 0.10156 4.5781 0 8.5781-3.3516 9.2656-8 0.76172-5.125-2.7812-9.8867-7.9023-10.648-3.1602-0.46875-6.3164-0.89844-9.4844-1.3008-5.1719-0.53125-9.8242 2.9922-10.484 8.1211-0.65234 5.1328 2.9844 9.832 8.1211 10.48z"/>
  <path d="m569.97 118.71c0.20312 0 0.41016-0.007813 0.61328-0.019532 3.0469-0.20312 6.1055-0.35547 9.1719-0.49609 5.1719-0.23047 9.1836-4.6055 8.9531-9.7773-0.21875-5.1719-4.4844-9.4023-9.7773-8.9531-3.1953 0.13672-6.3828 0.3125-9.5586 0.51172-5.1641 0.33984-9.082 4.7969-8.7539 9.9609 0.32812 4.9648 4.457 8.7734 9.3516 8.7734z"/>
  <path d="m707.61 129.54 5.8867 1.3828c0.74219 0.17578 1.4727 0.25781 2.1953 0.25781 4.2383 0 8.0742-2.8945 9.1094-7.1875 1.207-5.0352-1.8945-10.098-6.9297-11.309l-6.0898-1.418c-5.0273-1.1719-10.07 1.9961-11.223 7.0508-1.1523 5.043 2.0078 10.066 7.0508 11.223z"/>
  <path d="m523.41 123.93c0.49609 0 0.98828-0.035156 1.4922-0.11719 3.0312-0.48438 6.0703-0.94141 9.1172-1.3906 5.125-0.73438 8.6797-5.4922 7.9375-10.609-0.73438-5.125-5.5195-8.7812-10.609-7.9375-3.1602 0.44922-6.2891 0.92578-9.4102 1.4297-5.1172 0.82422-8.5977 5.6289-7.7734 10.738 0.74219 4.6094 4.7227 7.8867 9.2461 7.8867z"/>
  <path d="m616.54 117.94c3.0781 0.10156 6.1445 0.23047 9.2109 0.38281 0.15625 0.007813 0.32031 0.007813 0.47656 0.007813 4.9609 0 9.1016-3.8984 9.3555-8.9062 0.25781-5.1719-3.7266-9.5781-8.8984-9.832-3.1758-0.15625-6.3555-0.28516-9.5391-0.38281-4.8242-0.4375-9.5117 3.8828-9.668 9.0625-0.17578 5.1719 3.8906 9.5039 9.0625 9.668z"/>
  <path d="m227.77 292.25c2.6836 0 5.3477-1.1445 7.207-3.3594 1.9609-2.3516 3.9531-4.6797 5.9609-6.9844 3.4062-3.9102 2.9922-9.8242-0.90625-13.23-3.8828-3.3867-9.8047-2.9922-13.23 0.90625-2.0977 2.3984-4.1641 4.8359-6.2148 7.2773-3.3125 3.9727-2.793 9.8867 1.1797 13.211 1.7578 1.4648 3.8906 2.1797 6.0039 2.1797z"/>
  <path d="m259.56 257.81c2.3789 0 4.7617-0.89844 6.5938-2.6992 2.1797-2.1523 4.3672-4.2852 6.5938-6.3906 3.7617-3.5625 3.918-9.4922 0.35547-13.246-3.5508-3.7617-9.4844-3.918-13.246-0.35547-2.3164 2.1953-4.6133 4.4023-6.8828 6.6484-3.6797 3.6445-3.7188 9.5781-0.082031 13.266 1.832 1.8438 4.25 2.7773 6.668 2.7773z"/>
  <path d="m199.45 329.58c2.9922 0 5.9336-1.4297 7.7461-4.082 1.7305-2.5195 3.4805-5.0273 5.2656-7.5078 3.0195-4.2031 2.0586-10.062-2.1523-13.082-4.1914-3.0312-10.07-2.0703-13.082 2.1523-1.8594 2.5898-3.6992 5.2109-5.5039 7.8555-2.9219 4.2656-1.832 10.109 2.4453 13.027 1.6172 1.1055 3.457 1.6367 5.2812 1.6367z"/>
  <path d="m294.48 226.57c2.0703 0 4.1562-0.6875 5.8945-2.0977 2.3906-1.9336 4.7891-3.8555 7.2148-5.75 4.0742-3.1953 4.7891-9.0898 1.5938-13.164-3.1953-4.0742-9.0898-4.7969-13.164-1.5938-2.5 1.9688-4.9883 3.9453-7.4531 5.9492-4.0195 3.2578-4.6406 9.1641-1.375 13.184 1.8516 2.293 4.5586 3.4727 7.2891 3.4727z"/>
  <path d="m105.62 556.95c-0.30078 3.1602-0.57812 6.3281-0.81641 9.5039-0.39453 5.1641 3.4688 9.668 8.6328 10.062 0.24609 0.019531 0.48438 0.027344 0.72266 0.027344 4.8516 0 8.9648-3.7461 9.3398-8.6602 0.23828-3.0664 0.49609-6.125 0.77734-9.1719 0.49609-5.1562-3.2969-9.7227-8.4492-10.207-5.207-0.60937-9.7148 3.2891-10.207 8.4453z"/>
  <path d="m139.19 477.43c0.82422-2.9648 1.668-5.9219 2.5352-8.8711 1.457-4.9609-1.3906-10.172-6.3633-11.637-4.9727-1.457-10.172 1.4023-11.637 6.3633-0.88672 3.0391-1.7656 6.0898-2.6094 9.1641-1.375 4.9883 1.5547 10.152 6.5469 11.527 0.83203 0.23047 1.668 0.33984 2.5 0.33984 4.1094-0.003906 7.8828-2.7305 9.0273-6.8867z"/>
  <path d="m129.16 522.25c0.52344-3.0195 1.082-6.0352 1.6562-9.0352 0.98828-5.082-2.3359-10.008-7.4141-10.984-5.0703-0.99609-9.9961 2.3359-10.984 7.4141-0.61328 3.1328-1.1914 6.2695-1.7305 9.4219-0.87891 5.1094 2.5469 9.9531 7.6445 10.832 0.53906 0.089844 1.082 0.13672 1.6016 0.13672 4.4844-0.003906 8.4375-3.2266 9.2266-7.7852z"/>
 </g>
</svg>
